{"title":"Neighbor .2010.DVDRIP.H264.FEEL-FREE","uid":5709562,"size":1129094982,"categoryP":"video","categoryS":"movies","magnet":"?xt=urn:btih:8091559a530d4471844cab80d4dc22b60481afd0&amp;dn=Neighbor+.2010.DVDRIP.H264.FEEL-FREE&amp;tr=udp%3A%2F%2Ftracker.openbittorrent.com%3A80&amp;tr=udp%3A%2F%2Fopen.demonii.com%3A1337&amp;tr=udp%3A%2F%2Ftracker.coppersurfer.tk%3A6969&amp;tr=udp%3A%2F%2Fexodus.desync.com%3A6969","seeders":0,"leechers":1,"uploader":"neon","files":7,"time":1279835414,"description":"Genre:Horror | Thriller\nLanguage:English\nIMDb:http://www.imdb.com/title/tt1362103/\nSource:KART3LDVD.Thanks\nEncoder: Tony2\n..............................................\nGeneral\nComplete name : Neighbor .2010.DVDRIP.H264.FEEL-FREE\nFormat : MPEG-4\nFormat profile : Base Media\nCodec ID : isom\nFile size : 1.05 GiB\nDuration : 1h 30mn\nOverall bit rate : 1 669 Kbps\n...............................................\nVideo\nID : 2\nFormat : AVC\nFormat/Info : Advanced Video Codec\nFormat profile : &lt;a class=&quot;__cf_email__&quot; href=&quot;/cdn-cgi/l/email-protection&quot; data-cfemail=&quot;7d3f1c0e18111413183d314c534e&quot;&gt;[email&amp;#160;protected]&lt;/a&gt;&lt;script cf-hash='f9e31' type=&quot;text/javascript&quot;&gt;\n/* &lt;![CDATA[ */!function(){try{var t=&quot;currentScript&quot;in document?document.currentScript:function(){for(var t=document.getElementsByTagName(&quot;script&quot;),e=t.length;e--;)if(t[e].getAttribute(&quot;cf-hash&quot;))return t[e]}();if(t&amp;&amp;t.previousSibling){var e,r,n,i,c=t.previousSibling,a=c.getAttribute(&quot;data-cfemail&quot;);if(a){for(e=&quot;&quot;,r=parseInt(a.substr(0,2),16),n=2;a.length-n;n+=2)i=parseInt(a.substr(n,2),16)^r,e+=String.fromCharCode(i);e=document.createTextNode(e),c.parentNode.replaceChild(e,c)}}}catch(u){}}();/* ]]&gt; */&lt;/script&gt;\nFormat settings, CABAC : No\nFormat settings, ReFrames : 1 frame\nCodec ID : avc1\nCodec ID/Info : Advanced Video Coding\nDuration : 1h 30mn\nBit rate mode : Variable\nBit rate : 1 513 Kbps\nWidth : 720 pixels\nHeight : 304 pixels\nDisplay aspect ratio : 2.35:1\nFrame rate mode : Constant\nFrame rate : 23.976 fps\nResolution : 24 bits\nColorimetry : 4:2:0\nScan type : Progressive\nBits/(Pixel*Frame) : 0.288\nStream size : 974 MiB (91%)\nLanguage : English\n.................................................\nAudio\nID : 1\nFormat : AAC\nFormat/Info : Advanced Audio Codec\nFormat version : Version 4\nFormat profile : LC\nFormat settings, SBR : No\nCodec ID : 40\nDuration : 1h 30mn\nBit rate mode : Constant\nBit rate : 152 Kbps\nChannel(s) : 2 channels\nChannel positions : L R\nSampling rate : 44.1 KHz\nResolution : 16 bits\nStream size : 97.9 MiB (9%)\nLanguage : English\n..................................................\nPlot:\nA mysterious new girl arrives in a posh suburban neighborhood and quickly sets\nout to terrorize the town. As she starts breaking into homes and torturing the\noccupants, they begin to realize that she isn't just another girl next door.","torrent":{"xt":"urn:btih:8091559a530d4471844cab80d4dc22b60481afd0","amp;dn":"Neighbor+.2010.DVDRIP.H264.FEEL-FREE","amp;tr":["udp%3A%2F%2Ftracker.openbittorrent.com%3A80","udp%3A%2F%2Fopen.demonii.com%3A1337","udp%3A%2F%2Ftracker.coppersurfer.tk%3A6969","udp%3A%2F%2Fexodus.desync.com%3A6969"],"infoHash":"8091559a530d4471844cab80d4dc22b60481afd0","infoHashBuffer":{"type":"Buffer","data":[128,145,85,154,83,13,68,113,132,76,171,128,212,220,34,182,4,129,175,208]},"announce":[],"urlList":[]}}